<svg width="584" height="540" viewBox="0 0 584 540" fill="none" xmlns="http://www.w3.org/2000/svg">
<path fill-rule="evenodd" clip-rule="evenodd" d="M266.649 60.0774C317.49 50.2902 357.415 96.8012 402.44 122.338C445.426 146.718 496.736 159.797 519.65 203.571C546.651 255.155 560.221 319.796 532.649 371.092C505.11 422.324 440.559 432.784 385.833 452.525C326.254 474.018 266.584 509.184 206.667 488.684C139.44 465.683 74.5058 412.307 63.2829 342.167C52.5808 275.283 116.027 224.807 155.65 169.846C187.283 125.969 213.524 70.3043 266.649 60.0774Z" fill="#FDE047" fill-opacity="0.1"/>
<g clip-path="url(#clip0_117_8600)">
<path d="M356.83 440.021L357.305 429.341C362.257 426.694 367.78 425.296 373.394 425.268C365.667 431.586 366.633 443.763 361.394 452.259C359.739 454.896 357.513 457.127 354.879 458.787C352.245 460.446 349.272 461.492 346.179 461.846L339.713 465.805C338.825 460.859 339.021 455.779 340.286 450.915C341.551 446.052 343.856 441.52 347.041 437.633C348.849 435.47 350.923 433.544 353.213 431.899C354.761 435.982 356.83 440.021 356.83 440.021Z" fill="#F2F2F2"/>
<path d="M442.567 466.957C442.568 467.094 442.541 467.23 442.489 467.356C442.436 467.483 442.359 467.598 442.262 467.695C442.165 467.792 442.05 467.869 441.923 467.921C441.797 467.974 441.661 468 441.524 468H160.722C160.445 468 160.18 467.89 159.984 467.694C159.788 467.499 159.678 467.233 159.678 466.957C159.678 466.68 159.788 466.415 159.984 466.219C160.18 466.023 160.445 465.913 160.722 465.913H441.524C441.661 465.913 441.797 465.94 441.923 465.992C442.05 466.044 442.165 466.121 442.262 466.218C442.359 466.315 442.436 466.43 442.489 466.557C442.541 466.684 442.568 466.82 442.567 466.957Z" fill="#CCCCCC"/>
<path d="M531.615 166.648H419.636C416.176 166.644 412.858 165.268 410.411 162.821C407.965 160.374 406.588 157.057 406.584 153.596V92.6093C406.588 89.1491 407.965 85.8317 410.412 83.385C412.858 80.9383 416.176 79.5621 419.636 79.5583H531.615C535.075 79.5621 538.393 80.9383 540.84 83.385C543.286 85.8317 544.663 89.1491 544.667 92.6093V153.596C544.663 157.057 543.286 160.374 540.84 162.821C538.393 165.268 535.075 166.644 531.615 166.648Z" fill="#F2F2F2"/>
<path d="M360.656 166.648H248.677C245.217 166.644 241.899 165.268 239.452 162.821C237.006 160.374 235.629 157.057 235.625 153.596V92.6093C235.629 89.1491 237.006 85.8317 239.453 83.385C241.899 80.9383 245.217 79.5621 248.677 79.5583H360.656C364.116 79.5621 367.434 80.9383 369.881 83.385C372.327 85.8317 373.704 89.1491 373.708 92.6093V153.596C373.704 157.057 372.327 160.374 369.881 162.821C367.434 165.268 364.116 166.644 360.656 166.648Z" fill="#F2F2F2"/>
<path d="M189.697 166.648H77.7184C74.258 166.644 70.9405 165.268 68.4936 162.821C66.0468 160.374 64.6705 157.057 64.6666 153.596V92.6093C64.6705 89.1491 66.0469 85.8317 68.4937 83.385C70.9406 80.9383 74.2581 79.5621 77.7184 79.5583H189.697C193.157 79.5621 196.475 80.9383 198.922 83.385C201.369 85.8317 202.745 89.1491 202.749 92.6093V153.596C202.745 157.057 201.369 160.374 198.922 162.821C196.475 165.268 193.157 166.644 189.697 166.648Z" fill="#F2F2F2"/>
<path d="M360.656 167.525H248.678C244.985 167.521 241.444 166.052 238.833 163.441C236.222 160.829 234.753 157.289 234.749 153.596V92.6092C234.753 88.9166 236.222 85.3765 238.833 82.7654C241.445 80.1544 244.985 78.6857 248.678 78.6816H360.656C364.349 78.6857 367.889 80.1544 370.5 82.7654C373.112 85.3765 374.58 88.9166 374.585 92.6092V153.596C374.581 157.289 373.112 160.829 370.501 163.441C367.889 166.052 364.349 167.521 360.656 167.525ZM248.678 80.4349C245.45 80.4385 242.355 81.7223 240.073 84.0047C237.79 86.287 236.506 89.3815 236.502 92.6092V153.596C236.506 156.824 237.79 159.919 240.072 162.201C242.355 164.484 245.45 165.768 248.678 165.771H360.656C363.884 165.768 366.979 164.484 369.261 162.201C371.544 159.919 372.828 156.824 372.831 153.596V92.6092C372.828 89.3815 371.544 86.287 369.261 84.0047C366.979 81.7223 363.884 80.4385 360.656 80.4349H248.678Z" fill="#FDE047"/>
<path d="M154.865 81.5497H154.413V69.1317C154.413 67.2255 153.655 65.3974 152.308 64.0496C150.96 62.7017 149.131 61.9445 147.225 61.9445H120.915C119.971 61.9445 119.036 62.1304 118.164 62.4915C117.292 62.8527 116.5 63.3821 115.832 64.0495C115.165 64.7169 114.636 65.5092 114.274 66.3811C113.913 67.2531 113.727 68.1877 113.727 69.1315V137.258C113.727 139.164 114.484 140.992 115.832 142.34C117.18 143.688 119.008 144.445 120.915 144.445H147.225C148.169 144.445 149.103 144.259 149.975 143.898C150.847 143.537 151.64 143.007 152.307 142.34C152.975 141.672 153.504 140.88 153.865 140.008C154.226 139.136 154.412 138.202 154.412 137.258V90.389H154.865L154.865 81.5497Z" fill="#E6E6E6"/>
<path d="M152.947 68.6503V137.739C152.947 139.184 152.372 140.57 151.351 141.592C150.329 142.614 148.943 143.189 147.498 143.189H120.647C119.201 143.189 117.815 142.615 116.792 141.593C115.77 140.571 115.195 139.185 115.194 137.739V68.6503C115.195 67.2045 115.77 65.8182 116.792 64.7961C117.815 63.774 119.201 63.1999 120.647 63.2001H123.904C123.744 63.5934 123.683 64.02 123.727 64.4423C123.77 64.8646 123.917 65.2697 124.154 65.6221C124.391 65.9745 124.71 66.2633 125.085 66.4632C125.459 66.6631 125.877 66.7679 126.302 66.7685H141.61C142.034 66.7679 142.452 66.6631 142.827 66.4632C143.201 66.2633 143.521 65.9745 143.758 65.6221C143.995 65.2697 144.141 64.8646 144.185 64.4423C144.228 64.02 144.168 63.5934 144.008 63.2001H147.497C148.942 63.2004 150.328 63.7745 151.35 64.7963C152.372 65.8182 152.946 67.204 152.947 68.6492V68.6503Z" fill="white"/>
<path d="M146.714 128.367H121.917C121.025 128.366 120.17 128.012 119.539 127.381C118.909 126.75 118.554 125.895 118.553 125.004V90.1207C118.557 86.0484 120.177 82.1442 123.057 79.2647C125.936 76.3851 129.841 74.7654 133.913 74.7607H146.714C147.606 74.7617 148.461 75.1165 149.091 75.747C149.722 76.3776 150.077 77.2326 150.078 78.1244V125.004C150.077 125.895 149.722 126.75 149.091 127.381C148.461 128.012 147.606 128.366 146.714 128.367Z" fill="#F2F2F2"/>
<path d="M120.431 136.764C121.417 136.764 122.217 135.965 122.217 134.979C122.217 133.993 121.417 133.194 120.431 133.194C119.445 133.194 118.646 133.993 118.646 134.979C118.646 135.965 119.445 136.764 120.431 136.764Z" fill="#E6E6E6"/>
<path d="M314.157 108.606H294.441C294.335 108.605 294.229 108.621 294.128 108.655C293.914 108.721 293.727 108.854 293.594 109.034C293.461 109.215 293.39 109.433 293.39 109.657V140.804H315.211V109.657C315.211 109.519 315.184 109.382 315.131 109.254C315.078 109.127 315 109.011 314.902 108.913C314.804 108.815 314.688 108.738 314.56 108.685C314.432 108.633 314.296 108.606 314.157 108.606ZM306.695 123.973C306.696 124.478 306.529 124.969 306.222 125.37C305.928 125.759 305.519 126.045 305.054 126.19C304.589 126.334 304.09 126.329 303.627 126.174C303.165 126.02 302.763 125.725 302.478 125.33C302.192 124.935 302.038 124.46 302.037 123.973V120.359C302.042 119.745 302.29 119.158 302.726 118.726C303.163 118.294 303.752 118.051 304.366 118.051C304.98 118.051 305.569 118.294 306.005 118.726C306.442 119.158 306.69 119.745 306.695 120.359V123.973Z" fill="#2F2E41"/>
<path d="M293.323 139.807V142.811C293.323 142.967 293.385 143.116 293.495 143.227C293.605 143.337 293.754 143.399 293.91 143.4H314.692C314.847 143.399 314.996 143.336 315.106 143.226C315.216 143.116 315.278 142.967 315.278 142.811V139.807H293.323Z" fill="#3F3D56"/>
<path d="M346.805 60H262.528C261.804 60.0009 261.11 60.2888 260.597 60.8005C260.085 61.3122 259.796 62.0061 259.795 62.7302V119.6C259.795 120.324 260.083 121.019 260.596 121.532C261.108 122.044 261.803 122.332 262.528 122.333H346.805C347.53 122.332 348.225 122.044 348.737 121.532C349.25 121.019 349.538 120.324 349.539 119.6V62.7302C349.537 62.0061 349.248 61.3122 348.736 60.8005C348.224 60.2888 347.529 60.0009 346.805 60Z" fill="#3F3D56"/>
<path d="M346.101 61.974H263.229C262.842 61.9748 262.47 62.1294 262.196 62.4039C261.923 62.6783 261.769 63.0501 261.769 63.4378V118.898C261.769 119.285 261.923 119.657 262.197 119.93C262.471 120.204 262.842 120.358 263.229 120.359H346.101C346.488 120.358 346.859 120.204 347.133 119.93C347.407 119.657 347.561 119.285 347.561 118.898V63.4378C347.561 63.0501 347.408 62.6783 347.134 62.4039C346.86 62.1294 346.488 61.9748 346.101 61.974Z" fill="#FDE047"/>
<path d="M330.849 143.352L330.083 139.716C330.052 139.568 329.983 139.43 329.885 139.315C329.786 139.2 329.66 139.111 329.519 139.057C329.416 139.017 329.307 138.997 329.197 138.997H281.421C281.311 138.997 281.202 139.017 281.099 139.057C280.958 139.111 280.832 139.2 280.733 139.315C280.635 139.43 280.566 139.568 280.535 139.716L279.769 143.352C279.742 143.484 279.744 143.62 279.775 143.751C279.807 143.882 279.868 144.004 279.953 144.109C280.037 144.214 280.145 144.298 280.266 144.356C280.388 144.414 280.521 144.445 280.656 144.445H329.959C330.094 144.446 330.228 144.416 330.35 144.357C330.472 144.299 330.579 144.214 330.664 144.108C330.749 144.003 330.809 143.881 330.841 143.751C330.874 143.62 330.876 143.483 330.849 143.352Z" fill="#2F2E41"/>
<path d="M283.053 139.651H282.008C281.877 139.651 281.771 139.757 281.771 139.888V140.326C281.771 140.457 281.877 140.562 282.008 140.562H283.053C283.184 140.562 283.29 140.457 283.29 140.326V139.888C283.29 139.757 283.184 139.651 283.053 139.651Z" fill="#3F3D56"/>
<path d="M286.09 139.651H285.045C284.914 139.651 284.808 139.757 284.808 139.888V140.326C284.808 140.457 284.914 140.562 285.045 140.562H286.09C286.221 140.562 286.327 140.457 286.327 140.326V139.888C286.327 139.757 286.221 139.651 286.09 139.651Z" fill="#3F3D56"/>
<path d="M289.127 139.651H288.082C287.951 139.651 287.845 139.757 287.845 139.888V140.326C287.845 140.457 287.951 140.562 288.082 140.562H289.127C289.258 140.562 289.364 140.457 289.364 140.326V139.888C289.364 139.757 289.258 139.651 289.127 139.651Z" fill="#3F3D56"/>
<path d="M292.164 139.651H291.119C290.988 139.651 290.882 139.757 290.882 139.888V140.326C290.882 140.457 290.988 140.562 291.119 140.562H292.164C292.295 140.562 292.401 140.457 292.401 140.326V139.888C292.401 139.757 292.295 139.651 292.164 139.651Z" fill="#3F3D56"/>
<path d="M295.202 139.651H294.156C294.025 139.651 293.92 139.757 293.92 139.888V140.326C293.92 140.457 294.025 140.562 294.156 140.562H295.202C295.332 140.562 295.438 140.457 295.438 140.326V139.888C295.438 139.757 295.332 139.651 295.202 139.651Z" fill="#3F3D56"/>
<path d="M298.239 139.651H297.193C297.062 139.651 296.957 139.757 296.957 139.888V140.326C296.957 140.457 297.062 140.562 297.193 140.562H298.239C298.369 140.562 298.475 140.457 298.475 140.326V139.888C298.475 139.757 298.369 139.651 298.239 139.651Z" fill="#3F3D56"/>
<path d="M301.276 139.651H300.23C300.099 139.651 299.994 139.757 299.994 139.888V140.326C299.994 140.457 300.099 140.562 300.23 140.562H301.276C301.406 140.562 301.512 140.457 301.512 140.326V139.888C301.512 139.757 301.406 139.651 301.276 139.651Z" fill="#3F3D56"/>
<path d="M304.313 139.651H303.267C303.136 139.651 303.031 139.757 303.031 139.888V140.326C303.031 140.457 303.136 140.562 303.267 140.562H304.313C304.443 140.562 304.549 140.457 304.549 140.326V139.888C304.549 139.757 304.443 139.651 304.313 139.651Z" fill="#3F3D56"/>
<path d="M307.35 139.651H306.304C306.174 139.651 306.068 139.757 306.068 139.888V140.326C306.068 140.457 306.174 140.562 306.304 140.562H307.35C307.48 140.562 307.586 140.457 307.586 140.326V139.888C307.586 139.757 307.48 139.651 307.35 139.651Z" fill="#3F3D56"/>
<path d="M310.387 139.651H309.341C309.21 139.651 309.105 139.757 309.105 139.888V140.326C309.105 140.457 309.21 140.562 309.341 140.562H310.387C310.517 140.562 310.623 140.457 310.623 140.326V139.888C310.623 139.757 310.517 139.651 310.387 139.651Z" fill="#3F3D56"/>
<path d="M313.424 139.651H312.378C312.247 139.651 312.142 139.757 312.142 139.888V140.326C312.142 140.457 312.247 140.562 312.378 140.562H313.424C313.554 140.562 313.66 140.457 313.66 140.326V139.888C313.66 139.757 313.554 139.651 313.424 139.651Z" fill="#3F3D56"/>
<path d="M316.461 139.651H315.415C315.285 139.651 315.179 139.757 315.179 139.888V140.326C315.179 140.457 315.285 140.562 315.415 140.562H316.461C316.591 140.562 316.697 140.457 316.697 140.326V139.888C316.697 139.757 316.591 139.651 316.461 139.651Z" fill="#3F3D56"/>
<path d="M319.498 139.651H318.452C318.322 139.651 318.216 139.757 318.216 139.888V140.326C318.216 140.457 318.322 140.562 318.452 140.562H319.498C319.628 140.562 319.734 140.457 319.734 140.326V139.888C319.734 139.757 319.628 139.651 319.498 139.651Z" fill="#3F3D56"/>
<path d="M322.535 139.651H321.489C321.359 139.651 321.253 139.757 321.253 139.888V140.326C321.253 140.457 321.359 140.562 321.489 140.562H322.535C322.665 140.562 322.771 140.457 322.771 140.326V139.888C322.771 139.757 322.665 139.651 322.535 139.651Z" fill="#3F3D56"/>
<path d="M325.572 139.651H324.526C324.396 139.651 324.29 139.757 324.29 139.888V140.326C324.29 140.457 324.396 140.562 324.526 140.562H325.572C325.702 140.562 325.808 140.457 325.808 140.326V139.888C325.808 139.757 325.702 139.651 325.572 139.651Z" fill="#3F3D56"/>
<path d="M328.609 139.651H327.563C327.433 139.651 327.327 139.757 327.327 139.888V140.326C327.327 140.457 327.433 140.562 327.563 140.562H328.609C328.739 140.562 328.845 140.457 328.845 140.326V139.888C328.845 139.757 328.739 139.651 328.609 139.651Z" fill="#3F3D56"/>
<path d="M283.018 141.17H281.972C281.841 141.17 281.736 141.276 281.736 141.406V141.844C281.736 141.975 281.841 142.081 281.972 142.081H283.018C283.148 142.081 283.254 141.975 283.254 141.844V141.406C283.254 141.276 283.148 141.17 283.018 141.17Z" fill="#3F3D56"/>
<path d="M286.055 141.17H285.009C284.878 141.17 284.773 141.276 284.773 141.406V141.844C284.773 141.975 284.878 142.081 285.009 142.081H286.055C286.185 142.081 286.291 141.975 286.291 141.844V141.406C286.291 141.276 286.185 141.17 286.055 141.17Z" fill="#3F3D56"/>
<path d="M289.092 141.17H288.046C287.915 141.17 287.81 141.276 287.81 141.406V141.844C287.81 141.975 287.915 142.081 288.046 142.081H289.092C289.222 142.081 289.328 141.975 289.328 141.844V141.406C289.328 141.276 289.222 141.17 289.092 141.17Z" fill="#3F3D56"/>
<path d="M292.129 141.17H291.083C290.952 141.17 290.847 141.276 290.847 141.406V141.844C290.847 141.975 290.952 142.081 291.083 142.081H292.129C292.259 142.081 292.365 141.975 292.365 141.844V141.406C292.365 141.276 292.259 141.17 292.129 141.17Z" fill="#3F3D56"/>
<path d="M295.166 141.17H294.12C293.99 141.17 293.884 141.276 293.884 141.406V141.844C293.884 141.975 293.99 142.081 294.12 142.081H295.166C295.296 142.081 295.402 141.975 295.402 141.844V141.406C295.402 141.276 295.296 141.17 295.166 141.17Z" fill="#3F3D56"/>
<path d="M298.203 141.17H297.157C297.027 141.17 296.921 141.276 296.921 141.406V141.844C296.921 141.975 297.027 142.081 297.157 142.081H298.203C298.333 142.081 298.439 141.975 298.439 141.844V141.406C298.439 141.276 298.333 141.17 298.203 141.17Z" fill="#3F3D56"/>
<path d="M301.24 141.17H300.194C300.064 141.17 299.958 141.276 299.958 141.406V141.844C299.958 141.975 300.064 142.081 300.194 142.081H301.24C301.37 142.081 301.476 141.975 301.476 141.844V141.406C301.476 141.276 301.37 141.17 301.24 141.17Z" fill="#3F3D56"/>
<path d="M304.277 141.17H303.231C303.101 141.17 302.995 141.276 302.995 141.406V141.844C302.995 141.975 303.101 142.081 303.231 142.081H304.277C304.407 142.081 304.513 141.975 304.513 141.844V141.406C304.513 141.276 304.407 141.17 304.277 141.17Z" fill="#3F3D56"/>
<path d="M307.314 141.17H306.268C306.138 141.17 306.032 141.276 306.032 141.406V141.844C306.032 141.975 306.138 142.081 306.268 142.081H307.314C307.444 142.081 307.55 141.975 307.55 141.844V141.406C307.55 141.276 307.444 141.17 307.314 141.17Z" fill="#3F3D56"/>
<path d="M310.351 141.17H309.305C309.175 141.17 309.069 141.276 309.069 141.406V141.844C309.069 141.975 309.175 142.081 309.305 142.081H310.351C310.481 142.081 310.587 141.975 310.587 141.844V141.406C310.587 141.276 310.481 141.17 310.351 141.17Z" fill="#3F3D56"/>
<path d="M313.388 141.17H312.342C312.212 141.17 312.106 141.276 312.106 141.406V141.844C312.106 141.975 312.212 142.081 312.342 142.081H313.388C313.518 142.081 313.624 141.975 313.624 141.844V141.406C313.624 141.276 313.518 141.17 313.388 141.17Z" fill="#3F3D56"/>
<path d="M316.425 141.17H315.379C315.249 141.17 315.143 141.276 315.143 141.406V141.844C315.143 141.975 315.249 142.081 315.379 142.081H316.425C316.555 142.081 316.661 141.975 316.661 141.844V141.406C316.661 141.276 316.555 141.17 316.425 141.17Z" fill="#3F3D56"/>
<path d="M319.462 141.17H318.416C318.286 141.17 318.18 141.276 318.18 141.406V141.844C318.18 141.975 318.286 142.081 318.416 142.081H319.462C319.592 142.081 319.698 141.975 319.698 141.844V141.406C319.698 141.276 319.592 141.17 319.462 141.17Z" fill="#3F3D56"/>
<path d="M322.499 141.17H321.453C321.323 141.17 321.217 141.276 321.217 141.406V141.844C321.217 141.975 321.323 142.081 321.453 142.081H322.499C322.629 142.081 322.735 141.975 322.735 141.844V141.406C322.735 141.276 322.629 141.17 322.499 141.17Z" fill="#3F3D56"/>
<path d="M325.536 141.17H324.49C324.36 141.17 324.254 141.276 324.254 141.406V141.844C324.254 141.975 324.36 142.081 324.49 142.081H325.536C325.666 142.081 325.772 141.975 325.772 141.844V141.406C325.772 141.276 325.666 141.17 325.536 141.17Z" fill="#3F3D56"/>
<path d="M328.573 141.17H327.527C327.397 141.17 327.291 141.276 327.291 141.406V141.844C327.291 141.975 327.397 142.081 327.527 142.081H328.573C328.703 142.081 328.809 141.975 328.809 141.844V141.406C328.809 141.276 328.703 141.17 328.573 141.17Z" fill="#3F3D56"/>
<path d="M308.225 142.992H296.55C296.419 142.992 296.313 143.098 296.313 143.228V143.667C296.313 143.797 296.419 143.903 296.55 143.903H308.225C308.355 143.903 308.461 143.797 308.461 143.667V143.228C308.461 143.098 308.355 142.992 308.225 142.992Z" fill="#3F3D56"/>
<path d="M341.936 69.6139H264.394C264.314 69.6122 264.237 69.5789 264.181 69.5213C264.124 69.4636 264.093 69.3862 264.093 69.3056C264.093 69.2249 264.124 69.1475 264.181 69.0899C264.237 69.0322 264.314 68.999 264.394 68.9972H341.936C342.017 68.999 342.094 69.0322 342.15 69.0899C342.207 69.1475 342.238 69.2249 342.238 69.3056C342.238 69.3862 342.207 69.4636 342.15 69.5213C342.094 69.5789 342.017 69.6122 341.936 69.6139Z" fill="#3F3D56"/>
<path d="M269.673 67.4228C270.671 67.4228 271.48 66.5957 271.48 65.5754C271.48 64.5552 270.671 63.7281 269.673 63.7281C268.674 63.7281 267.865 64.5552 267.865 65.5754C267.865 66.5957 268.674 67.4228 269.673 67.4228Z" fill="#3F3D56"/>
<path d="M275.915 67.4228C276.914 67.4228 277.723 66.5957 277.723 65.5754C277.723 64.5552 276.914 63.7281 275.915 63.7281C274.917 63.7281 274.108 64.5552 274.108 65.5754C274.108 66.5957 274.917 67.4228 275.915 67.4228Z" fill="#3F3D56"/>
<path d="M282.158 67.4228C283.156 67.4228 283.965 66.5957 283.965 65.5754C283.965 64.5552 283.156 63.7281 282.158 63.7281C281.16 63.7281 280.351 64.5552 280.351 65.5754C280.351 66.5957 281.16 67.4228 282.158 67.4228Z" fill="#3F3D56"/>
<path d="M338.177 64.1849H333.743C333.655 64.1869 333.572 64.2231 333.511 64.2858C333.449 64.3486 333.415 64.4328 333.415 64.5205C333.415 64.6082 333.449 64.6924 333.511 64.7551C333.572 64.8178 333.655 64.8541 333.743 64.8561H338.177C338.265 64.8548 338.349 64.8189 338.411 64.7561C338.473 64.6933 338.508 64.6087 338.508 64.5205C338.508 64.4323 338.473 64.3477 338.411 64.2849C338.349 64.2221 338.265 64.1862 338.177 64.1849Z" fill="#3F3D56"/>
<path d="M338.177 65.4452H333.743C333.655 65.4472 333.572 65.4835 333.511 65.5462C333.449 65.6089 333.415 65.6931 333.415 65.7808C333.415 65.8685 333.449 65.9527 333.511 66.0154C333.572 66.0781 333.655 66.1144 333.743 66.1164H338.177C338.265 66.1151 338.349 66.0792 338.411 66.0164C338.473 65.9536 338.508 65.869 338.508 65.7808C338.508 65.6926 338.473 65.608 338.411 65.5452C338.349 65.4824 338.265 65.4465 338.177 65.4452Z" fill="#3F3D56"/>
<path d="M338.177 66.7056H333.743C333.655 66.7076 333.572 66.7438 333.511 66.8065C333.449 66.8692 333.415 66.9534 333.415 67.0411C333.415 67.1288 333.449 67.2131 333.511 67.2758C333.572 67.3385 333.655 67.3747 333.743 67.3767H338.177C338.265 67.3755 338.349 67.3396 338.411 67.2768C338.473 67.214 338.508 67.1293 338.508 67.0411C338.508 66.953 338.473 66.8683 338.411 66.8055C338.349 66.7427 338.265 66.7068 338.177 66.7056Z" fill="#3F3D56"/>
<path d="M506.502 101.524H448.536C447.63 101.525 446.762 101.886 446.121 102.526C445.481 103.166 445.121 104.035 445.12 104.94V141.029C445.121 141.935 445.481 142.803 446.121 143.443C446.762 144.084 447.63 144.444 448.536 144.445H506.502C507.408 144.444 508.276 144.084 508.917 143.443C509.557 142.803 509.917 141.935 509.918 141.029V104.94C509.917 104.035 509.557 103.166 508.917 102.526C508.276 101.886 507.408 101.525 506.502 101.524Z" fill="#F2F2F2"/>
<path d="M506.502 101.524H448.536C447.63 101.525 446.762 101.886 446.121 102.526C445.481 103.166 445.121 104.035 445.12 104.94V141.029C445.121 141.935 445.481 142.803 446.121 143.443C446.762 144.084 447.63 144.444 448.536 144.445H506.502C507.408 144.444 508.276 144.084 508.917 143.443C509.557 142.803 509.917 141.935 509.918 141.029V104.94C509.917 104.035 509.557 103.166 508.917 102.526C508.276 101.886 507.408 101.525 506.502 101.524ZM507.623 127.447C507.61 131.122 506.156 134.644 503.575 137.259C500.994 139.874 497.491 141.373 493.817 141.435C487.936 141.511 497.072 141.541 489.978 141.541C473.757 141.541 456.842 141.386 450.531 141.285C449.701 141.268 448.91 140.927 448.328 140.335C447.745 139.743 447.418 138.947 447.415 138.116V104.943C447.415 104.646 447.533 104.36 447.743 104.15C447.953 103.939 448.238 103.82 448.535 103.819H506.5C506.797 103.82 507.083 103.938 507.293 104.148C507.504 104.358 507.622 104.643 507.623 104.94L507.623 127.447Z" fill="#E6E6E6"/>
<path d="M499.367 80.7433H455.202C454.811 80.7439 454.43 80.865 454.111 81.0902C453.792 81.3154 453.55 81.6337 453.418 82.0015L446.597 101.137C446.495 101.423 446.463 101.729 446.504 102.029C446.545 102.33 446.658 102.616 446.832 102.864C447.007 103.112 447.239 103.314 447.508 103.454C447.777 103.594 448.075 103.667 448.379 103.668L507.611 103.773H507.613C507.927 103.773 508.235 103.695 508.511 103.546C508.787 103.398 509.022 103.183 509.195 102.921C509.367 102.66 509.472 102.359 509.5 102.047C509.528 101.735 509.478 101.421 509.354 101.132L501.108 81.8914C500.962 81.5505 500.719 81.2599 500.41 81.0558C500.1 80.8517 499.738 80.743 499.367 80.7433Z" fill="#E6E6E6"/>
<path d="M509.508 101.548C509.508 101.805 509.455 102.059 509.354 102.294L501.108 117.106C500.962 117.446 500.719 117.736 500.409 117.939C500.1 118.143 499.737 118.252 499.367 118.252H455.203C454.812 118.252 454.431 118.131 454.111 117.906C453.791 117.681 453.549 117.363 453.417 116.995L446.597 102.289C446.514 102.055 446.477 101.807 446.49 101.558C446.502 101.31 446.563 101.066 446.67 100.841C446.777 100.617 446.927 100.415 447.111 100.248C447.296 100.082 447.512 99.953 447.746 99.8696C447.949 99.7964 448.163 99.7589 448.378 99.7588L455.614 99.7452L458.567 99.7401L497.426 99.6719L500.381 99.6668L507.611 99.6532H507.613C508.115 99.6532 508.597 99.8529 508.953 100.208C509.308 100.564 509.508 101.046 509.508 101.548Z" fill="#E6E6E6"/>
<path d="M452.881 128.595C453.757 128.595 465.783 129.33 465.783 130.206C465.783 131.082 453.757 131.767 452.881 131.767C452.461 131.767 452.057 131.599 451.76 131.302C451.463 131.005 451.296 130.601 451.296 130.181C451.296 129.76 451.463 129.357 451.76 129.06C452.057 128.762 452.461 128.595 452.881 128.595Z" fill="#E6E6E6"/>
<path d="M496.617 69.102H459.378C458.38 69.1032 457.423 69.5001 456.717 70.2058C456.012 70.9115 455.615 71.8682 455.614 72.8662V118.252H499.367C499.726 118.253 500.078 118.151 500.381 117.958V72.8662C500.38 71.8682 499.983 70.9115 499.277 70.2058C498.571 69.5001 497.615 69.1032 496.617 69.102Z" fill="#F2F2F2"/>
<path d="M482.403 72.1539H461.995C461.086 72.1548 460.215 72.5161 459.572 73.1585C458.93 73.8009 458.568 74.672 458.567 75.5807V118.252H497.426V87.1764C497.421 83.1936 495.837 79.3752 493.021 76.559C490.204 73.7427 486.386 72.1585 482.403 72.1539Z" fill="white"/>
<path d="M490.806 114.463H465.187C465.077 114.462 464.968 114.484 464.867 114.526C464.765 114.567 464.673 114.629 464.595 114.706C464.517 114.784 464.456 114.876 464.413 114.978C464.371 115.079 464.35 115.188 464.35 115.298C464.35 115.407 464.371 115.516 464.413 115.618C464.456 115.719 464.517 115.811 464.595 115.889C464.673 115.966 464.765 116.028 464.867 116.07C464.968 116.112 465.077 116.133 465.187 116.133H490.806C490.916 116.133 491.024 116.112 491.126 116.07C491.228 116.028 491.32 115.966 491.398 115.889C491.475 115.811 491.537 115.719 491.579 115.618C491.621 115.516 491.643 115.407 491.643 115.298C491.643 115.188 491.621 115.079 491.579 114.978C491.537 114.876 491.475 114.784 491.398 114.706C491.32 114.629 491.228 114.567 491.126 114.526C491.024 114.484 490.916 114.462 490.806 114.463Z" fill="#E4E4E4"/>
<path d="M490.806 111.16H465.187C464.966 111.161 464.754 111.249 464.597 111.406C464.441 111.563 464.354 111.775 464.354 111.996C464.354 112.217 464.441 112.43 464.597 112.586C464.754 112.743 464.966 112.831 465.187 112.832H490.806C490.916 112.832 491.025 112.811 491.126 112.769C491.228 112.727 491.32 112.666 491.398 112.588C491.476 112.51 491.538 112.418 491.58 112.317C491.622 112.215 491.644 112.106 491.644 111.996C491.644 111.886 491.622 111.777 491.58 111.676C491.538 111.574 491.476 111.482 491.398 111.404C491.32 111.327 491.228 111.265 491.126 111.223C491.025 111.181 490.916 111.16 490.806 111.16Z" fill="#E4E4E4"/>
<path d="M476.292 107.86H465.187C465.077 107.859 464.968 107.881 464.867 107.922C464.765 107.964 464.673 108.026 464.595 108.103C464.517 108.181 464.456 108.273 464.413 108.375C464.371 108.476 464.35 108.585 464.35 108.695C464.35 108.804 464.371 108.913 464.413 109.015C464.456 109.116 464.517 109.208 464.595 109.286C464.673 109.363 464.765 109.425 464.867 109.467C464.968 109.508 465.077 109.53 465.187 109.53H476.292C476.402 109.53 476.511 109.508 476.613 109.467C476.714 109.425 476.806 109.363 476.884 109.286C476.962 109.208 477.024 109.116 477.066 109.015C477.108 108.913 477.13 108.804 477.13 108.695C477.13 108.585 477.108 108.476 477.066 108.375C477.024 108.273 476.962 108.181 476.884 108.103C476.806 108.026 476.714 107.964 476.613 107.922C476.511 107.881 476.402 107.859 476.292 107.86Z" fill="#E4E4E4"/>
<path d="M490.806 100.945H465.187C464.966 100.945 464.754 101.034 464.597 101.19C464.441 101.347 464.354 101.559 464.354 101.781C464.354 102.002 464.441 102.214 464.597 102.371C464.754 102.527 464.966 102.616 465.187 102.616H490.806C490.916 102.617 491.025 102.595 491.126 102.553C491.228 102.512 491.32 102.45 491.398 102.372C491.476 102.295 491.538 102.203 491.58 102.101C491.622 101.999 491.644 101.891 491.644 101.781C491.644 101.671 491.622 101.562 491.58 101.46C491.538 101.359 491.476 101.266 491.398 101.189C491.32 101.111 491.228 101.05 491.126 101.008C491.025 100.966 490.916 100.944 490.806 100.945Z" fill="#E4E4E4"/>
<path d="M490.806 97.6441H465.187C465.077 97.6438 464.968 97.6652 464.867 97.707C464.765 97.7488 464.673 97.8103 464.595 97.8878C464.517 97.9654 464.456 98.0576 464.413 98.159C464.371 98.2605 464.35 98.3692 464.35 98.4791C464.35 98.5889 464.371 98.6977 464.413 98.7992C464.456 98.9006 464.517 98.9928 464.595 99.0703C464.673 99.1479 464.765 99.2093 464.867 99.2512C464.968 99.293 465.077 99.3144 465.187 99.314H490.806C490.916 99.3144 491.024 99.293 491.126 99.2512C491.228 99.2093 491.32 99.1479 491.398 99.0703C491.475 98.9928 491.537 98.9006 491.579 98.7992C491.621 98.6977 491.643 98.5889 491.643 98.4791C491.643 98.3692 491.621 98.2605 491.579 98.159C491.537 98.0576 491.475 97.9654 491.398 97.8878C491.32 97.8103 491.228 97.7488 491.126 97.707C491.024 97.6652 490.916 97.6438 490.806 97.6441Z" fill="#E4E4E4"/>
<path d="M476.292 94.3418H465.187C464.966 94.3424 464.754 94.4307 464.597 94.5874C464.441 94.7441 464.354 94.9563 464.354 95.1776C464.354 95.3988 464.441 95.6111 464.597 95.7678C464.754 95.9244 464.966 96.0128 465.187 96.0134H476.292C476.402 96.0137 476.511 95.9923 476.613 95.9505C476.715 95.9086 476.807 95.8471 476.885 95.7694C476.963 95.6918 477.025 95.5995 477.067 95.498C477.109 95.3964 477.131 95.2875 477.131 95.1776C477.131 95.0676 477.109 94.9587 477.067 94.8572C477.025 94.7556 476.963 94.6634 476.885 94.5857C476.807 94.5081 476.715 94.4466 476.613 94.4047C476.511 94.3628 476.402 94.3415 476.292 94.3418Z" fill="#E4E4E4"/>
<path d="M490.806 87.4269H465.187C464.965 87.4269 464.753 87.515 464.596 87.6717C464.439 87.8285 464.351 88.0411 464.351 88.2627C464.351 88.4844 464.439 88.697 464.596 88.8537C464.753 89.0105 464.965 89.0985 465.187 89.0985H490.806C491.027 89.0985 491.24 89.0105 491.397 88.8537C491.553 88.697 491.642 88.4844 491.642 88.2627C491.642 88.0411 491.553 87.8285 491.397 87.6717C491.24 87.515 491.027 87.4269 490.806 87.4269Z" fill="#E4E4E4"/>
<path d="M490.806 84.1263H465.187C464.965 84.1263 464.753 84.2143 464.596 84.3711C464.439 84.5278 464.351 84.7404 464.351 84.9621C464.351 85.1837 464.439 85.3963 464.596 85.5531C464.753 85.7098 464.965 85.7979 465.187 85.7979H490.806C491.027 85.7979 491.24 85.7098 491.397 85.5531C491.553 85.3963 491.642 85.1837 491.642 84.9621C491.642 84.7404 491.553 84.5278 491.397 84.3711C491.24 84.2143 491.027 84.1263 490.806 84.1263Z" fill="#E4E4E4"/>
<path d="M476.292 80.8239H465.187C464.966 80.8245 464.754 80.9129 464.597 81.0695C464.441 81.2262 464.354 81.4384 464.354 81.6597C464.354 81.881 464.441 82.0932 464.597 82.2499C464.754 82.4066 464.966 82.4949 465.187 82.4955H476.292C476.402 82.4958 476.511 82.4744 476.613 82.4326C476.715 82.3907 476.807 82.3292 476.885 82.2516C476.963 82.1739 477.025 82.0817 477.067 81.9801C477.109 81.8785 477.131 81.7697 477.131 81.6597C477.131 81.5497 477.109 81.4409 477.067 81.3393C477.025 81.2377 476.963 81.1455 476.885 81.0679C476.807 80.9902 476.715 80.9287 476.613 80.8868C476.511 80.845 476.402 80.8236 476.292 80.8239Z" fill="#E4E4E4"/>
<path d="M330.032 141.345C329.585 142.145 329.32 143.034 329.254 143.948C329.188 144.862 329.323 145.78 329.65 146.636C329.977 147.493 330.488 148.267 331.147 148.904C331.805 149.542 332.596 150.027 333.462 150.326L333.5 172.608L343.156 166.217L341.639 146.038C342.045 144.549 341.891 142.963 341.205 141.58C340.52 140.198 339.351 139.114 337.92 138.536C336.489 137.957 334.896 137.924 333.442 138.442C331.988 138.959 330.775 139.992 330.032 141.345Z" fill="#A0616A"/>
<path d="M263.128 451.468L270.161 454.465L285.067 428.766L274.688 424.343L263.128 451.468Z" fill="#A0616A"/>
<path d="M321.243 458.123L328.887 458.122L332.524 428.637L321.242 428.637L321.243 458.123Z" fill="#A0616A"/>
<path d="M320.974 466.097L344.482 466.096V465.799C344.482 463.372 343.518 461.045 341.802 459.329C340.086 457.613 337.759 456.649 335.332 456.649L331.037 453.392L323.026 456.65L320.974 456.65L320.974 466.097Z" fill="#2F2E41"/>
<path d="M258.852 456.572L280.478 465.788L280.594 465.515C281.545 463.282 281.571 460.764 280.665 458.512C279.759 456.261 277.996 454.462 275.764 453.51L273.091 448.83L264.443 448.686L262.555 447.882L258.852 456.572Z" fill="#2F2E41"/>
<path d="M328.742 283.619L340.36 354.36L337.198 364.901L341.347 372.367L335.254 437.935L337.727 443.38L330.817 447.641H316.756L316.01 388.283L312.537 379.567V374.764L305.466 338.569L304.712 383.519L302.454 387.873L282.232 440.809H266.465L267.684 431.415C264.859 429.985 271.925 425.805 272.604 422.712L270.283 417.489L272.604 407.622L277.952 380.182L272.488 347.646L274.445 326.704L273.426 319.54L273.503 317.223C273.503 317.223 276.198 316.183 273.625 313.588C270.062 293.39 274.445 289.006 274.445 289.006L291.989 278.739L328.742 283.619Z" fill="#2F2E41"/>
<path d="M300.449 190.457C309.249 190.457 316.383 183.324 316.383 174.524C316.383 165.724 309.249 158.591 300.449 158.591C291.649 158.591 284.515 165.724 284.515 174.524C284.515 183.324 291.649 190.457 300.449 190.457Z" fill="#A0616A"/>
<path d="M280.472 143.959C280.547 144.873 280.421 145.792 280.103 146.651C279.784 147.511 279.281 148.29 278.629 148.934C277.977 149.578 277.191 150.072 276.328 150.379C275.464 150.687 274.544 150.802 273.631 150.715L264.373 170.983L258.229 161.168L267.963 143.427C268.21 141.903 269.007 140.523 270.203 139.548C271.4 138.574 272.912 138.071 274.454 138.137C275.996 138.203 277.46 138.832 278.569 139.905C279.679 140.978 280.356 142.42 280.472 143.959Z" fill="#A0616A"/>
<path d="M266.545 210.731L279.827 204.387C279.964 204.321 280.09 204.235 280.201 204.132L289.473 195.533C289.748 195.278 290.109 195.135 290.484 195.132L307.146 195.007C307.378 195.005 307.608 195.058 307.816 195.159C308.025 195.261 308.207 195.41 308.349 195.594L313.42 202.186C313.601 202.421 313.847 202.598 314.128 202.693L327.947 207.387C328.257 207.492 328.523 207.695 328.707 207.965C328.891 208.235 328.981 208.557 328.966 208.884L326.483 260.24C326.472 260.468 326.513 260.695 326.603 260.905L327.79 263.675C327.912 263.957 327.943 264.269 327.882 264.57C327.82 264.871 327.667 265.146 327.444 265.357C327.092 265.69 326.696 266.075 326.44 266.358C325.927 266.926 327.023 271.374 327.186 272.023C327.2 272.077 327.211 272.132 327.218 272.188L327.831 276.787C327.867 277.058 327.829 277.334 327.72 277.584C327.612 277.835 327.437 278.051 327.215 278.21C327.045 278.331 326.903 278.485 326.797 278.664C326.69 278.842 326.622 279.041 326.597 279.247C326.571 279.454 326.588 279.663 326.647 279.862C326.707 280.062 326.807 280.246 326.941 280.405L328.285 281.993C328.471 282.212 328.59 282.481 328.628 282.766L328.95 285.181C328.983 285.42 328.957 285.663 328.876 285.89C328.794 286.116 328.659 286.32 328.483 286.484C328.306 286.648 328.092 286.767 327.86 286.831C327.628 286.894 327.383 286.901 327.148 286.851C318.799 285.05 287.727 279.319 276.329 290.932C276.114 291.156 275.835 291.307 275.53 291.366C275.225 291.425 274.91 291.388 274.627 291.26C274.344 291.132 274.107 290.92 273.95 290.653C273.792 290.385 273.721 290.076 273.746 289.766C273.829 288.513 273.987 287.265 274.22 286.03L275.333 278.986C275.359 278.822 275.357 278.656 275.329 278.493L274.311 272.663C274.258 272.358 274.112 272.077 273.893 271.858L273.552 271.516C273.412 271.377 273.301 271.211 273.226 271.029C273.15 270.846 273.111 270.651 273.111 270.453C273.111 270.256 273.15 270.06 273.226 269.878C273.301 269.695 273.412 269.529 273.552 269.39L274.882 268.059C275.046 267.896 275.169 267.696 275.243 267.477C275.317 267.258 275.34 267.024 275.309 266.795L273.542 253.716C273.538 253.69 273.534 253.663 273.529 253.637L265.716 212.368C265.654 212.041 265.702 211.704 265.852 211.408C266.002 211.112 266.246 210.874 266.545 210.731Z" fill="#3F3D56"/>
<path d="M296.373 189.677C296.305 189.527 296.237 189.377 296.169 189.226C296.195 189.227 296.221 189.231 296.247 189.231L296.373 189.677Z" fill="#2F2E41"/>
<path d="M326.638 230.352L343.212 207.462L351.596 194.869L343.826 157.295L332.635 165.892L333.515 186.844L318.534 207.986L326.638 230.352Z" fill="#3F3D56"/>
<path d="M314.321 160.187C314.083 158.863 313.55 157.61 312.762 156.521C312.364 156.049 311.872 155.666 311.317 155.397C310.762 155.128 310.156 154.98 309.54 154.961C308.923 154.942 308.31 155.054 307.739 155.288C307.169 155.523 306.654 155.875 306.229 156.322C306.478 155.598 306.551 154.825 306.44 154.067C305.277 154.625 304.032 154.995 302.752 155.164L305.58 152.212L291.505 153.505C290.052 153.638 288.482 153.827 287.415 154.931C286.348 156.034 286.289 158.389 287.637 159.005C284.981 158.004 281.93 159.456 280.177 161.889C278.424 164.322 277.779 167.532 277.66 170.645C277.507 174.682 278.259 178.98 280.724 181.953C282.335 183.896 284.532 185.108 286.316 186.857C286.334 186.874 286.351 186.892 286.369 186.91C288.322 188.913 290.771 190.364 293.466 191.114C296.161 191.865 299.007 191.889 301.715 191.184C302.019 191.101 302.321 191.008 302.625 190.922C304.141 191.608 306.03 190.67 306.988 189.144C308.009 187.518 308.21 185.437 308.254 183.455C308.31 180.862 308.15 178.27 307.776 175.704C307.354 172.814 306.973 169.114 309.262 167.662C311.044 166.532 313.257 167.647 315.051 168.754C315.223 165.878 314.977 162.992 314.321 160.187Z" fill="#2F2E41"/>
<path d="M280.345 233.948L269.728 233.182L251.301 210.622L237.623 191.018L240.774 183.048L259.638 150.997L269.526 158.918L260.086 189.921L278.798 208.633L280.345 233.948Z" fill="#3F3D56"/>
<path d="M371.984 94.7773C381.544 94.7773 389.294 87.0273 389.294 77.4671C389.294 67.9069 381.544 60.1568 371.984 60.1568C362.423 60.1568 354.673 67.9069 354.673 77.4671C354.673 87.0273 362.423 94.7773 371.984 94.7773Z" fill="#FDE047"/>
<path d="M369.622 86.4763C369.323 86.4763 369.028 86.4067 368.761 86.2729C368.494 86.1392 368.261 85.9451 368.082 85.7059L363.359 79.4091C363.207 79.2069 363.096 78.9766 363.033 78.7315C362.97 78.4864 362.956 78.2313 362.992 77.9808C363.028 77.7303 363.112 77.4893 363.241 77.2715C363.37 77.0537 363.54 76.8635 363.743 76.7116C363.945 76.5598 364.176 76.4494 364.421 76.3867C364.666 76.3239 364.921 76.3102 365.172 76.3461C365.422 76.382 365.663 76.467 365.881 76.5961C366.098 76.7253 366.288 76.896 366.44 77.0986L369.53 81.2178L377.465 69.315C377.605 69.1041 377.786 68.923 377.996 68.7818C378.206 68.6407 378.442 68.5424 378.69 68.4925C378.938 68.4427 379.194 68.4422 379.442 68.4913C379.691 68.5403 379.927 68.6378 380.137 68.7782C380.348 68.9186 380.529 69.0992 380.67 69.3096C380.811 69.52 380.908 69.7561 380.958 70.0044C381.007 70.2526 381.007 70.5082 380.958 70.7565C380.908 71.0048 380.81 71.2409 380.67 71.4512L371.224 85.6188C371.054 85.875 370.824 86.0865 370.554 86.2356C370.285 86.3847 369.983 86.467 369.676 86.4756C369.658 86.476 369.64 86.4763 369.622 86.4763Z" fill="white"/>
</g>
<defs>
<clipPath id="clip0_117_8600">
<rect width="480" height="408" fill="white" transform="translate(64.6666 60)"/>
</clipPath>
</defs>
</svg>
